<svg xmlns="http://www.w3.org/2000/svg" xml:space="preserve"
  style="fill-rule:evenodd;clip-rule:evenodd;stroke-linecap:round;stroke-linejoin:round;stroke-miterlimit:1.5"
  viewBox="0 0 637 257"><path d="M613.693 204.831H22.875" style="fill:none;stroke:#1f7bfe;stroke-width:2.25px;stroke-dasharray:2.25,6.75,0,0"/><path d="M168.483 204.831H98.626" style="fill:none;stroke:#007bff;stroke-width:2.25px"/><path d="M168.342 204.831v-69.857" style="fill:none;stroke:#00ff12;stroke-width:2.25px"/><text x="609.358" y="753.807" style="font-family:&quot;CMUSerif-Roman&quot;,&quot;CMU Serif&quot;;font-weight:500;font-size:30px;fill:#1f7bfe" transform="matrix(.69857 0 0 .69857 -17.467 -283.645)">-</text><text x="619.348" y="753.807" style="font-family:&quot;CMUSerif-Italic&quot;,&quot;CMU Serif&quot;;font-weight:500;font-style:italic;font-size:30px;fill:#1f7bfe" transform="matrix(.69857 0 0 .69857 -17.467 -283.645)">n</text><text x="609.358" y="753.807" style="font-family:&quot;CMUSerif-Roman&quot;,&quot;CMU Serif&quot;;font-weight:500;font-size:30px;fill:#1f7bfe" transform="matrix(.69857 0 0 .69857 137.376 -283.318)">-</text><text x="619.348" y="753.807" style="font-family:&quot;CMUSerif-Italic&quot;,&quot;CMU Serif&quot;;font-weight:500;font-style:italic;font-size:30px;fill:#1f7bfe" transform="matrix(.69857 0 0 .69857 137.376 -283.318)">f</text><path d="M248.427 204.192a78.244 78.244 0 0 0-7.918-34.298l-2.11 1.029a75.892 75.892 0 0 1 7.681 33.269h2.347Z" style="stroke:red;stroke-width:.1px"/><text x="251.921" y="193.311" style="font-family:&quot;CMUSerif-Roman&quot;,&quot;CMU Serif&quot;;font-weight:500;font-size:25.148px;stroke:red;stroke-width:.1px;stroke-linecap:butt;stroke-miterlimit:2"></text><path d="M414.266 92.357h-1.429l2.198-2.198 2.199 2.198h-1.429v103.042h1.429l-2.199 2.198-2.198-2.198h1.429V92.357Z" style="stroke:red;stroke-width:.1px"/><text x="314.697" y="162.688" style="font-family:&quot;CMUSerif-Roman&quot;,&quot;CMU Serif&quot;;font-weight:500;font-size:25.148px;stroke:red;stroke-width:.1px;stroke-linecap:butt;stroke-miterlimit:2">heigh<tspan x="372.614" y="162.688">t</tspan>/2</text><path d="M183.563 218.696v1.428l-2.198-2.198 2.198-2.198v1.429h220.401v-1.429l2.198 2.198-2.198 2.198v-1.428H183.563Z" style="stroke:red;stroke-width:.1px"/><text x="280.309" y="237.52" style="font-family:&quot;CMUSerif-Roman&quot;,&quot;CMU Serif&quot;;font-weight:500;font-size:25.148px;stroke:red;stroke-width:.1px;stroke-linecap:butt;stroke-miterlimit:2">n</text><text x="181.079" y="62.684" style="font-family:&quot;CMUSerif-Italic&quot;,&quot;CMU Serif&quot;;font-weight:500;font-style:italic;font-size:25.148px;stroke:red;stroke-width:.1px;stroke-linecap:butt;stroke-miterlimit:2">tan(θ) = height / 2n</text><path d="M421.922 82.582v122.249M571.415 9.875v194.956M571.415 9.875l-149.702 72.6" style="fill:none;stroke:#010001;stroke-width:2.25px"/><text x="58.117" y="192.347" style="font-family:&quot;CMUSerif-Roman&quot;,&quot;CMU Serif&quot;;font-weight:500;font-size:20.957px;stroke:red;stroke-width:.1px;stroke-linecap:butt;stroke-miterlimit:2">+Z</text><text x="131.681" y="121.347" style="font-family:&quot;CMUSerif-Roman&quot;,&quot;CMU Serif&quot;;font-weight:500;font-size:20.957px;stroke:red;stroke-width:.1px;stroke-linecap:butt;stroke-miterlimit:2">+Y</text><path d="m421.713 82.475-253.23 122.806" style="fill:#010001;stroke:#000;stroke-width:2.25px;stroke-dasharray:2.25,6.75,0,0"/></svg>
