<svg xmlns="http://www.w3.org/2000/svg" xml:space="preserve" style="fill-rule:evenodd;clip-rule:evenodd;stroke-linecap:round;stroke-linejoin:round;stroke-miterlimit:1.5" viewBox="0 0 1118 443"><path d="m33.448 234.989 151.976 47.603M185.424 282.592l4.503 110.002M189.927 392.594 45.993 337.593M45.993 337.593 33.448 234.989" style="fill:none;stroke:#010001;stroke-width:1.5px"/><path d="M498.499 79.548 168.976 27.179M168.976 27.179l8.234 199.182M177.21 226.361l293.21 82.34M470.42 308.701l28.079-229.153" style="fill:none;stroke:#010001;stroke-width:1.5px;stroke-linecap:butt;stroke-miterlimit:2"/><path d="M185.424 282.592 498.499 79.548M189.927 392.594l280.493-83.893M45.993 337.593 177.21 226.361M33.448 234.989l135.528-207.81" style="fill:none;stroke:#010001;stroke-width:1.5px"/><text x="-2.941" y="347.24" style="font-family:&quot;CMUSerif-Italic&quot;,&quot;CMU Serif&quot;;font-weight:500;font-style:italic;font-size:19.674px;stroke:red;stroke-width:.1px;stroke-linecap:butt;stroke-miterlimit:2">(l,b)</text><text x="184.431" y="410.724" style="font-family:&quot;CMUSerif-Italic&quot;,&quot;CMU Serif&quot;;font-weight:500;font-style:italic;font-size:19.674px;stroke:red;stroke-width:.1px;stroke-linecap:butt;stroke-miterlimit:2">(r,b)</text><text x="192.931" y="298.196" style="font-family:&quot;CMUSerif-Italic&quot;,&quot;CMU Serif&quot;;font-weight:500;font-style:italic;font-size:19.674px;stroke:red;stroke-width:.1px;stroke-linecap:butt;stroke-miterlimit:2">(r,t)</text><text x="-2.941" y="241.63" style="font-family:&quot;CMUSerif-Italic&quot;,&quot;CMU Serif&quot;;font-weight:500;font-style:italic;font-size:19.674px;stroke:red;stroke-width:.1px;stroke-linecap:butt;stroke-miterlimit:2">(l,t)</text><path d="m766.826 303.245 87.954-59.211M854.78 244.034l225.436 86.532M1080.22 330.566l-69.565 92.462M1010.65 423.028 766.825 303.245M839.702.75l15.078 243.284M727.88 29.383l38.946 273.862M1034.38 86.137l-23.727 336.891M727.88 29.383 839.702.75M839.702.75l276.814 37.473M1116.52 38.223l-82.138 47.914M1034.38 86.137 727.882 29.383M1116.52 38.223l-36.3 292.343" style="fill:none;stroke:#000;stroke-width:1.5px"/><text x="657.343" y="37.51" style="font-family:&quot;CMUSerif-Italic&quot;,&quot;CMU Serif&quot;;font-weight:500;font-style:italic;font-size:21.447px;stroke:red;stroke-width:.1px;stroke-linecap:butt;stroke-miterlimit:2">(-1,-1)</text><text x="1014.78" y="436.71" style="font-family:&quot;CMUSerif-Italic&quot;,&quot;CMU Serif&quot;;font-weight:500;font-style:italic;font-size:21.447px;stroke:red;stroke-width:.1px;stroke-linecap:butt;stroke-miterlimit:2">(1,1)</text><text x="701.298" y="316.151" style="font-family:&quot;CMUSerif-Italic&quot;,&quot;CMU Serif&quot;;font-weight:500;font-style:italic;font-size:21.447px;stroke:red;stroke-width:.1px;stroke-linecap:butt;stroke-miterlimit:2">(-1,1)</text><text x="1044.77" y="104.836" style="font-family:&quot;CMUSerif-Italic&quot;,&quot;CMU Serif&quot;;font-weight:500;font-style:italic;font-size:21.447px;stroke:red;stroke-width:.1px;stroke-linecap:butt;stroke-miterlimit:2">(1,-1)</text><path d="M527.853 270.746v-4.125h124.5v-6.188l8.25 8.25-8.25 8.25v-6.187h-124.5Z" style="stroke:#ebebeb;stroke-width:.75px"/></svg>