<svg xmlns="http://www.w3.org/2000/svg" xml:space="preserve" style="fill-rule:evenodd;clip-rule:evenodd;stroke-linecap:round;stroke-linejoin:round;stroke-miterlimit:1.5" viewBox="0 0 888 751"><path d="M813.113 120.88 110.655 633.002.75 714.192" style="fill:none;stroke:#007bff;stroke-width:1.5px;stroke-dasharray:1.5,4.5,0,0"/><circle cx="634.72" cy="251.343" r="5.88" style="fill:#007bff;stroke:#007bff;stroke-width:3.75px"/><circle cx="354.216" cy="454.961" r="5.88" style="fill:#007bff;stroke:#007bff;stroke-width:3.75px"/><path d="M675.017.75 9.69 750.072" style="fill:#c600ff;stroke:#c600ff;stroke-width:1.5px;stroke-dasharray:1.5,4.5,0,0"/><path d="M533.578 152.833a5.883 5.883 0 0 1 7.55 3.487 5.883 5.883 0 0 1-3.488 7.549 5.882 5.882 0 0 1-7.549-3.487 5.883 5.883 0 0 1 3.487-7.549ZM308.387 406.752a5.884 5.884 0 0 1 7.55 3.487 5.884 5.884 0 0 1-3.487 7.55 5.884 5.884 0 0 1-7.55-3.487 5.884 5.884 0 0 1 3.487-7.55ZM421.203 278.344a5.884 5.884 0 0 1 7.55 3.487 5.884 5.884 0 0 1-3.488 7.55 5.883 5.883 0 0 1-7.549-3.488 5.883 5.883 0 0 1 3.487-7.549Z" style="fill:#c600ff;stroke:#c600ff;stroke-width:3.75px"/><path d="m123.103 624.64-57.906 41.887" style="fill:none;stroke:#007bff;stroke-width:2.25px"/><path d="m112.305 565.554 10.798 59.086" style="fill:none;stroke:#00ff12;stroke-width:2.25px"/><path d="m123.103 624.64 52.061 24.748" style="fill:none;stroke:red;stroke-width:2.25px"/><path d="m248.894 349.237 208.563 65.328M457.457 414.565l6.18 150.959M463.637 565.524l-197.528-75.479M266.109 490.045l-17.215-140.808" style="fill:none;stroke:#010001;stroke-width:1.5px"/><path d="M887.101 135.919 434.884 64.052M434.884 64.052l11.299 273.344M446.183 337.396l402.385 112.999M848.568 450.395l38.533-314.476" style="fill:none;stroke:#010001;stroke-width:1.5px;stroke-linecap:butt;stroke-miterlimit:2"/><path d="m457.457 414.565 429.644-278.646M463.637 565.524l384.931-115.129M266.109 490.045l180.074-152.649M248.894 349.237l185.99-285.185" style="fill:none;stroke:#010001;stroke-width:1.5px"/><text x="182.473" y="668.377" style="font-family:&quot;CMUSerif-Italic&quot;,&quot;CMU Serif&quot;;font-weight:500;font-style:italic;font-size:27px;stroke:red;stroke-width:.1px;stroke-linecap:butt;stroke-miterlimit:2">+X</text><text x="72.062" y="556.482" style="font-family:&quot;CMUSerif-Italic&quot;,&quot;CMU Serif&quot;;font-weight:500;font-style:italic;font-size:27px;stroke:red;stroke-width:.1px;stroke-linecap:butt;stroke-miterlimit:2">+Y</text><text x="14.802" y="665.199" style="font-family:&quot;CMUSerif-Italic&quot;,&quot;CMU Serif&quot;;font-weight:500;font-style:italic;font-size:27px;stroke:red;stroke-width:.1px;stroke-linecap:butt;stroke-miterlimit:2">+Z</text><text x="126.271" y="410.309" style="font-family:&quot;CMUSerif-Italic&quot;,&quot;CMU Serif&quot;;font-weight:500;font-style:italic;font-size:27px;stroke:red;stroke-width:.1px;stroke-linecap:butt;stroke-miterlimit:2">(xp,yp,zp)</text><text x="322.57" y="262.673" style="font-family:&quot;CMUSerif-Italic&quot;,&quot;CMU Serif&quot;;font-weight:500;font-style:italic;font-size:27px;stroke:red;stroke-width:.1px;stroke-linecap:butt;stroke-miterlimit:2">(xe,ye,ze)</text></svg>