<svg xmlns="http://www.w3.org/2000/svg" xml:space="preserve" style="fill-rule:evenodd;clip-rule:evenodd;stroke-linecap:round;stroke-linejoin:round;stroke-miterlimit:1.5" viewBox="0 0 1120 451"><path d="M778.574 66.217v318.645" style="fill:none;stroke:#000;stroke-width:1.5px;stroke-dasharray:1.5,4.5,0,0"/><text x="343.145" y="123.397" style="font-family:&quot;CMUSerif-Italic&quot;,&quot;CMU Serif&quot;;font-weight:500;font-style:italic;font-size:27px;stroke:red;stroke-width:.1px;stroke-linecap:butt;stroke-miterlimit:2">(zp,yp)</text><text x="787.69" y="95.92" style="font-family:&quot;CMUSerif-Italic&quot;,&quot;CMU Serif&quot;;font-weight:500;font-style:italic;font-size:27px;stroke:red;stroke-width:.1px;stroke-linecap:butt;stroke-miterlimit:2">(ze,ye)</text><text x="8.236" y="206.774" style="font-family:&quot;CMUSerif-Italic&quot;,&quot;CMU Serif&quot;;font-weight:500;font-style:italic;font-size:27px;stroke:red;stroke-width:.1px;stroke-linecap:butt;stroke-miterlimit:2">+Z</text><text x="71.251" y="148.951" style="font-family:&quot;CMUSerif-Italic&quot;,&quot;CMU Serif&quot;;font-weight:500;font-style:italic;font-size:27px;stroke:red;stroke-width:.1px;stroke-linecap:butt;stroke-miterlimit:2">+Y</text><path d="M1054.85.75 418.812 150.59M1054.85.75l-.017 449.046M418.81 300.054l636.021 149.742M418.81 300.054V150.59" style="fill:none;stroke:#000;stroke-width:1.5px"/><path d="M.75 225.345h1118.27" style="fill:none;stroke:#1f7bfe;stroke-width:1.5px;stroke-dasharray:1.5,4.5,0,0"/><path d="M1.846 240.164 1107.956 75.67" style="fill:none;stroke:#c60dfc;stroke-width:1.5px;stroke-dasharray:1.5,4.5,0,0"/><path d="M38.681 225.345h62.807" style="fill:none;stroke:#1f7bfe;stroke-width:1.5px"/><path d="M101.488 225.345v-63.309" style="fill:none;stroke:#0cfe13;stroke-width:1.5px"/><path d="M416.476 173.322a5.883 5.883 0 0 1 7.549 3.487 5.883 5.883 0 0 1-3.487 7.55 5.883 5.883 0 0 1-7.549-3.488 5.882 5.882 0 0 1 3.487-7.549ZM776.543 119.11a5.883 5.883 0 0 1 7.549 3.487 5.883 5.883 0 0 1-3.487 7.55 5.883 5.883 0 0 1-7.549-3.487 5.883 5.883 0 0 1 3.487-7.55Z" style="fill:#c600ff;stroke:#c600ff;stroke-width:3.75px"/><text x="609.358" y="753.807" style="font-family:&quot;CMUSerif-Roman&quot;,&quot;CMU Serif&quot;;font-weight:500;font-size:36px;fill:#1f7bfe" transform="matrix(.75 0 0 .75 -74.13 -315.548)">-</text><text x="621.346" y="753.807" style="font-family:&quot;CMUSerif-Italic&quot;,&quot;CMU Serif&quot;;font-weight:500;font-style:italic;font-size:36px;fill:#1f7bfe" transform="matrix(.75 0 0 .75 -74.13 -315.548)">n</text><text x="1025.25" y="250.738" style="font-family:&quot;CMUSerif-Italic&quot;,&quot;CMU Serif&quot;;font-weight:500;font-style:italic;font-size:27px;fill:#1f7bfe">-f</text></svg>